<?xml version="1.0" encoding="UTF-8" standalone="no"?>
<!DOCTYPE svg PUBLIC "-//W3C//DTD SVG 1.1//EN"
 "http://www.w3.org/Graphics/SVG/1.1/DTD/svg11.dtd">
<!-- Generated by graphviz version 2.43.0 (0)
 -->
<!-- Title: %3 Pages: 1 -->
<svg width="572pt" height="297pt"
 viewBox="0.00 0.00 572.27 296.74" xmlns="http://www.w3.org/2000/svg" xmlns:xlink="http://www.w3.org/1999/xlink">
<g id="graph0" class="graph" transform="scale(1 1) rotate(0) translate(4 292.74)">
<title>%3</title>
<polygon fill="white" stroke="transparent" points="-4,4 -4,-292.74 568.27,-292.74 568.27,4 -4,4"/>
<!-- 102 -->
<g id="node1" class="node">
<title>102</title>
<ellipse fill="none" stroke="blue" cx="282.14" cy="-26.87" rx="282.27" ry="26.74"/>
<text text-anchor="middle" x="282.14" y="-30.67" font-family="Times,serif" font-size="14.00">Line: 102</text>
<text text-anchor="middle" x="282.14" y="-15.67" font-family="Times,serif" font-size="14.00">int android.util.Log.d(&quot;setOnClickListener&quot;, $u&#45;1#12)</text>
</g>
<!-- 0_0 -->
<g id="node2" class="node">
<title>0_0</title>
<polygon fill="none" stroke="red" points="494.64,-288.74 69.64,-288.74 69.64,-250.74 494.64,-250.74 494.64,-288.74"/>
<text text-anchor="middle" x="282.14" y="-273.54" font-family="Times,serif" font-size="14.00">Line: 98</text>
<text text-anchor="middle" x="282.14" y="-258.54" font-family="Times,serif" font-size="14.00">$u6 = android.view.View $u4.findViewById(2131230899)</text>
</g>
<!-- 0_1 -->
<g id="node3" class="node">
<title>0_1</title>
<polygon fill="none" stroke="black" points="412.64,-213.74 151.64,-213.74 151.64,-177.74 412.64,-177.74 412.64,-213.74"/>
<text text-anchor="middle" x="282.14" y="-192.04" font-family="Times,serif" font-size="14.00">e = (android.widget.EditText) $u6</text>
</g>
<!-- 0_0&#45;&gt;0_1 -->
<g id="edge1" class="edge">
<title>0_0&#45;&gt;0_1</title>
<path fill="none" stroke="black" d="M282.14,-250.57C282.14,-242.63 282.14,-233.15 282.14,-224.37"/>
<polygon fill="black" stroke="black" points="285.64,-224.16 282.14,-214.16 278.64,-224.16 285.64,-224.16"/>
</g>
<!-- 0_2 -->
<g id="node4" class="node">
<title>0_2</title>
<polygon fill="none" stroke="black" points="481.64,-140.74 82.64,-140.74 82.64,-104.74 481.64,-104.74 481.64,-140.74"/>
<text text-anchor="middle" x="282.14" y="-119.04" font-family="Times,serif" font-size="14.00">int android.util.Log.d(&quot;setOnClickListener&quot;, $u&#45;1#12)</text>
</g>
<!-- 0_1&#45;&gt;0_2 -->
<g id="edge2" class="edge">
<title>0_1&#45;&gt;0_2</title>
<path fill="none" stroke="black" d="M282.14,-177.55C282.14,-169.53 282.14,-159.79 282.14,-150.81"/>
<polygon fill="black" stroke="black" points="285.64,-150.77 282.14,-140.77 278.64,-150.77 285.64,-150.77"/>
</g>
<!-- 0_2&#45;&gt;102 -->
<g id="edge3" class="edge">
<title>0_2&#45;&gt;102</title>
<path fill="none" stroke="black" d="M282.14,-104.52C282.14,-93.22 282.14,-78.01 282.14,-64.12"/>
<polygon fill="black" stroke="black" points="285.64,-63.84 282.14,-53.84 278.64,-63.84 285.64,-63.84"/>
<text text-anchor="middle" x="331.64" y="-75.54" font-family="Times,serif" font-size="14.00">sinks through</text>
</g>
</g>
</svg>
