<?xml version="1.0" encoding="UTF-8" standalone="no"?>
<!DOCTYPE svg PUBLIC "-//W3C//DTD SVG 1.1//EN"
 "http://www.w3.org/Graphics/SVG/1.1/DTD/svg11.dtd">
<!-- Generated by graphviz version 2.43.0 (0)
 -->
<!-- Title: %3 Pages: 1 -->
<svg width="5731pt" height="3582pt"
 viewBox="0.00 0.00 5731.00 3581.74" xmlns="http://www.w3.org/2000/svg" xmlns:xlink="http://www.w3.org/1999/xlink">
<g id="graph0" class="graph" transform="scale(1 1) rotate(0) translate(4 3577.74)">
<title>%3</title>
<polygon fill="white" stroke="transparent" points="-4,4 -4,-3577.74 5727,-3577.74 5727,4 -4,4"/>
<!-- 55 -->
<g id="node1" class="node">
<title>55</title>
<ellipse fill="none" stroke="blue" cx="2861.5" cy="-26.87" rx="235.43" ry="26.74"/>
<text text-anchor="middle" x="2861.5" y="-30.67" font-family="Times,serif" font-size="14.00">Line: 55</text>
<text text-anchor="middle" x="2861.5" y="-15.67" font-family="Times,serif" font-size="14.00">$u&#45;1#11 = okhttp3.Call e#10.newCall($u&#45;1)</text>
</g>
<!-- 0_0 -->
<g id="node2" class="node">
<title>0_0</title>
<polygon fill="none" stroke="red" points="3074,-3573.74 2649,-3573.74 2649,-3535.74 3074,-3535.74 3074,-3573.74"/>
<text text-anchor="middle" x="2861.5" y="-3558.54" font-family="Times,serif" font-size="14.00">Line: 98</text>
<text text-anchor="middle" x="2861.5" y="-3543.54" font-family="Times,serif" font-size="14.00">$u6 = android.view.View $u4.findViewById(2131230899)</text>
</g>
<!-- 0_1 -->
<g id="node3" class="node">
<title>0_1</title>
<polygon fill="none" stroke="black" points="2992,-3498.74 2731,-3498.74 2731,-3462.74 2992,-3462.74 2992,-3498.74"/>
<text text-anchor="middle" x="2861.5" y="-3477.04" font-family="Times,serif" font-size="14.00">e = (android.widget.EditText) $u6</text>
</g>
<!-- 0_0&#45;&gt;0_1 -->
<g id="edge1" class="edge">
<title>0_0&#45;&gt;0_1</title>
<path fill="none" stroke="black" d="M2861.5,-3535.57C2861.5,-3527.63 2861.5,-3518.15 2861.5,-3509.37"/>
<polygon fill="black" stroke="black" points="2865,-3509.16 2861.5,-3499.16 2858,-3509.16 2865,-3509.16"/>
</g>
<!-- 0_2 -->
<g id="node4" class="node">
<title>0_2</title>
<polygon fill="none" stroke="black" points="3125.5,-3425.74 2597.5,-3425.74 2597.5,-3389.74 3125.5,-3389.74 3125.5,-3425.74"/>
<text text-anchor="middle" x="2861.5" y="-3404.04" font-family="Times,serif" font-size="14.00">$u3.&lt;kotlin.jvm.internal.Ref$ObjectRef: java.lang.Object element&gt; = e</text>
</g>
<!-- 0_1&#45;&gt;0_2 -->
<g id="edge2" class="edge">
<title>0_1&#45;&gt;0_2</title>
<path fill="none" stroke="black" d="M2861.5,-3462.55C2861.5,-3454.53 2861.5,-3444.79 2861.5,-3435.81"/>
<polygon fill="black" stroke="black" points="2865,-3435.77 2861.5,-3425.77 2858,-3435.77 2865,-3435.77"/>
</g>
<!-- 0_3 -->
<g id="node5" class="node">
<title>0_3</title>
<polygon fill="none" stroke="black" points="3133.5,-3352.74 2589.5,-3352.74 2589.5,-3316.74 3133.5,-3316.74 3133.5,-3352.74"/>
<text text-anchor="middle" x="2861.5" y="-3331.04" font-family="Times,serif" font-size="14.00">void kotlin.jvm.internal.Intrinsics.checkNotNullParameter($u3, &quot;$mEdit&quot;)</text>
</g>
<!-- 0_2&#45;&gt;0_3 -->
<g id="edge3" class="edge">
<title>0_2&#45;&gt;0_3</title>
<path fill="none" stroke="black" d="M2861.5,-3389.55C2861.5,-3381.53 2861.5,-3371.79 2861.5,-3362.81"/>
<polygon fill="black" stroke="black" points="2865,-3362.77 2861.5,-3352.77 2858,-3362.77 2865,-3362.77"/>
</g>
<!-- 0_4 -->
<g id="node6" class="node">
<title>0_4</title>
<polygon fill="none" stroke="black" points="2892.5,-3279.74 2830.5,-3279.74 2830.5,-3243.74 2892.5,-3243.74 2892.5,-3279.74"/>
<text text-anchor="middle" x="2861.5" y="-3258.04" font-family="Times,serif" font-size="14.00">return</text>
</g>
<!-- 0_3&#45;&gt;0_4 -->
<g id="edge4" class="edge">
<title>0_3&#45;&gt;0_4</title>
<path fill="none" stroke="black" d="M2861.5,-3316.55C2861.5,-3308.53 2861.5,-3298.79 2861.5,-3289.81"/>
<polygon fill="black" stroke="black" points="2865,-3289.77 2861.5,-3279.77 2858,-3289.77 2865,-3289.77"/>
</g>
<!-- 0_5 -->
<g id="node7" class="node">
<title>0_5</title>
<polygon fill="none" stroke="black" points="3136,-3206.74 2587,-3206.74 2587,-3170.74 3136,-3170.74 3136,-3206.74"/>
<text text-anchor="middle" x="2861.5" y="-3185.04" font-family="Times,serif" font-size="14.00">e#8 = $u3.&lt;kotlin.jvm.internal.Ref$ObjectRef: java.lang.Object element&gt;</text>
</g>
<!-- 0_4&#45;&gt;0_5 -->
<g id="edge5" class="edge">
<title>0_4&#45;&gt;0_5</title>
<path fill="none" stroke="black" d="M2861.5,-3243.55C2861.5,-3235.53 2861.5,-3225.79 2861.5,-3216.81"/>
<polygon fill="black" stroke="black" points="2865,-3216.77 2861.5,-3206.77 2858,-3216.77 2865,-3216.77"/>
</g>
<!-- 0_6 -->
<g id="node8" class="node">
<title>0_6</title>
<polygon fill="none" stroke="black" points="2993,-3133.74 2730,-3133.74 2730,-3097.74 2993,-3097.74 2993,-3133.74"/>
<text text-anchor="middle" x="2861.5" y="-3112.04" font-family="Times,serif" font-size="14.00">e = (android.widget.EditText) e#8</text>
</g>
<!-- 0_5&#45;&gt;0_6 -->
<g id="edge6" class="edge">
<title>0_5&#45;&gt;0_6</title>
<path fill="none" stroke="black" d="M2861.5,-3170.55C2861.5,-3162.53 2861.5,-3152.79 2861.5,-3143.81"/>
<polygon fill="black" stroke="black" points="2865,-3143.77 2861.5,-3133.77 2858,-3143.77 2865,-3143.77"/>
</g>
<!-- 0_7 -->
<g id="node9" class="node">
<title>0_7</title>
<polygon fill="none" stroke="black" points="3013,-3060.74 2710,-3060.74 2710,-3024.74 3013,-3024.74 3013,-3060.74"/>
<text text-anchor="middle" x="2861.5" y="-3039.04" font-family="Times,serif" font-size="14.00">$u&#45;1 = android.text.Editable e.getText()</text>
</g>
<!-- 0_6&#45;&gt;0_7 -->
<g id="edge7" class="edge">
<title>0_6&#45;&gt;0_7</title>
<path fill="none" stroke="black" d="M2861.5,-3097.55C2861.5,-3089.53 2861.5,-3079.79 2861.5,-3070.81"/>
<polygon fill="black" stroke="black" points="2865,-3070.77 2861.5,-3060.77 2858,-3070.77 2865,-3070.77"/>
</g>
<!-- 0_8 -->
<g id="node10" class="node">
<title>0_8</title>
<polygon fill="none" stroke="black" points="3023,-2987.74 2700,-2987.74 2700,-2951.74 3023,-2951.74 3023,-2987.74"/>
<text text-anchor="middle" x="2861.5" y="-2966.04" font-family="Times,serif" font-size="14.00">$u&#45;1#12 = java.lang.String $u&#45;1.toString()</text>
</g>
<!-- 0_7&#45;&gt;0_8 -->
<g id="edge8" class="edge">
<title>0_7&#45;&gt;0_8</title>
<path fill="none" stroke="black" d="M2861.5,-3024.55C2861.5,-3016.53 2861.5,-3006.79 2861.5,-2997.81"/>
<polygon fill="black" stroke="black" points="2865,-2997.77 2861.5,-2987.77 2858,-2997.77 2865,-2997.77"/>
</g>
<!-- 0_9 -->
<g id="node11" class="node">
<title>0_9</title>
<polygon fill="none" stroke="black" points="3080,-2914.74 2643,-2914.74 2643,-2878.74 3080,-2878.74 3080,-2914.74"/>
<text text-anchor="middle" x="2861.5" y="-2893.04" font-family="Times,serif" font-size="14.00">$u&#45;1#12 = java.lang.String $u4.uselessFunction($u&#45;1#12)</text>
</g>
<!-- 0_8&#45;&gt;0_9 -->
<g id="edge9" class="edge">
<title>0_8&#45;&gt;0_9</title>
<path fill="none" stroke="black" d="M2861.5,-2951.55C2861.5,-2943.53 2861.5,-2933.79 2861.5,-2924.81"/>
<polygon fill="black" stroke="black" points="2865,-2924.77 2861.5,-2914.77 2858,-2924.77 2865,-2924.77"/>
</g>
<!-- 0_10 -->
<g id="node12" class="node">
<title>0_10</title>
<polygon fill="none" stroke="black" points="3034,-2841.74 2689,-2841.74 2689,-2805.74 3034,-2805.74 3034,-2841.74"/>
<text text-anchor="middle" x="2861.5" y="-2820.04" font-family="Times,serif" font-size="14.00">$u3 = java.lang.String $u3.toLowerCase($u0)</text>
</g>
<!-- 0_9&#45;&gt;0_10 -->
<g id="edge10" class="edge">
<title>0_9&#45;&gt;0_10</title>
<path fill="none" stroke="black" d="M2861.5,-2878.55C2861.5,-2870.53 2861.5,-2860.79 2861.5,-2851.81"/>
<polygon fill="black" stroke="black" points="2865,-2851.77 2861.5,-2841.77 2858,-2851.77 2865,-2851.77"/>
</g>
<!-- 0_11 -->
<g id="node13" class="node">
<title>0_11</title>
<polygon fill="none" stroke="black" points="2908.5,-2768.74 2814.5,-2768.74 2814.5,-2732.74 2908.5,-2732.74 2908.5,-2768.74"/>
<text text-anchor="middle" x="2861.5" y="-2747.04" font-family="Times,serif" font-size="14.00">return $u3</text>
</g>
<!-- 0_10&#45;&gt;0_11 -->
<g id="edge11" class="edge">
<title>0_10&#45;&gt;0_11</title>
<path fill="none" stroke="black" d="M2861.5,-2805.55C2861.5,-2797.53 2861.5,-2787.79 2861.5,-2778.81"/>
<polygon fill="black" stroke="black" points="2865,-2778.77 2861.5,-2768.77 2858,-2778.77 2865,-2778.77"/>
</g>
<!-- 0_12 -->
<g id="node14" class="node">
<title>0_12</title>
<polygon fill="none" stroke="black" points="3081,-2695.74 2642,-2695.74 2642,-2659.74 3081,-2659.74 3081,-2695.74"/>
<text text-anchor="middle" x="2861.5" y="-2674.04" font-family="Times,serif" font-size="14.00">$u&#45;1#12 = java.lang.String $u4.sendGetRequest($u&#45;1#12)</text>
</g>
<!-- 0_11&#45;&gt;0_12 -->
<g id="edge12" class="edge">
<title>0_11&#45;&gt;0_12</title>
<path fill="none" stroke="black" d="M2861.5,-2732.55C2861.5,-2724.53 2861.5,-2714.79 2861.5,-2705.81"/>
<polygon fill="black" stroke="black" points="2865,-2705.77 2861.5,-2695.77 2858,-2705.77 2865,-2705.77"/>
</g>
<!-- 0_13 -->
<g id="node15" class="node">
<title>0_13</title>
<polygon fill="none" stroke="black" points="3012,-2622.74 2711,-2622.74 2711,-2586.74 3012,-2586.74 3012,-2622.74"/>
<text text-anchor="middle" x="2861.5" y="-2601.04" font-family="Times,serif" font-size="14.00">e = okhttp3.Request$Builder e.url($u6)</text>
</g>
<!-- 0_12&#45;&gt;0_13 -->
<g id="edge13" class="edge">
<title>0_12&#45;&gt;0_13</title>
<path fill="none" stroke="black" d="M2861.5,-2659.55C2861.5,-2651.53 2861.5,-2641.79 2861.5,-2632.81"/>
<polygon fill="black" stroke="black" points="2865,-2632.77 2861.5,-2622.77 2858,-2632.77 2865,-2632.77"/>
</g>
<!-- 0_14 -->
<g id="node16" class="node">
<title>0_14</title>
<polygon fill="none" stroke="black" points="3017.5,-2549.74 2705.5,-2549.74 2705.5,-2513.74 3017.5,-2513.74 3017.5,-2549.74"/>
<text text-anchor="middle" x="2861.5" y="-2528.04" font-family="Times,serif" font-size="14.00">$u&#45;1#21 = okhttp3.HttpUrl $u1.get($u4)</text>
</g>
<!-- 0_13&#45;&gt;0_14 -->
<g id="edge14" class="edge">
<title>0_13&#45;&gt;0_14</title>
<path fill="none" stroke="black" d="M2861.5,-2586.55C2861.5,-2578.53 2861.5,-2568.79 2861.5,-2559.81"/>
<polygon fill="black" stroke="black" points="2865,-2559.77 2861.5,-2549.77 2858,-2559.77 2865,-2559.77"/>
</g>
<!-- 0_15 -->
<g id="node17" class="node">
<title>0_15</title>
<polygon fill="none" stroke="black" points="3085,-2476.74 2638,-2476.74 2638,-2440.74 3085,-2440.74 3085,-2476.74"/>
<text text-anchor="middle" x="2861.5" y="-2455.04" font-family="Times,serif" font-size="14.00">$u0 = okhttp3.HttpUrl$Builder $u0.parse$okhttp(null, $u3)</text>
</g>
<!-- 0_14&#45;&gt;0_15 -->
<g id="edge15" class="edge">
<title>0_14&#45;&gt;0_15</title>
<path fill="none" stroke="black" d="M2861.5,-2513.55C2861.5,-2505.53 2861.5,-2495.79 2861.5,-2486.81"/>
<polygon fill="black" stroke="black" points="2865,-2486.77 2861.5,-2476.77 2858,-2486.77 2865,-2486.77"/>
</g>
<!-- 0_16 -->
<g id="node18" class="node">
<title>0_16</title>
<polygon fill="none" stroke="black" points="2975.5,-2403.74 2747.5,-2403.74 2747.5,-2367.74 2975.5,-2367.74 2975.5,-2403.74"/>
<text text-anchor="middle" x="2861.5" y="-2382.04" font-family="Times,serif" font-size="14.00">$u&#45;1 = char $u33.charAt(pos)</text>
</g>
<!-- 0_15&#45;&gt;0_16 -->
<g id="edge16" class="edge">
<title>0_15&#45;&gt;0_16</title>
<path fill="none" stroke="black" d="M2861.5,-2440.55C2861.5,-2432.53 2861.5,-2422.79 2861.5,-2413.81"/>
<polygon fill="black" stroke="black" points="2865,-2413.77 2861.5,-2403.77 2858,-2413.77 2865,-2413.77"/>
</g>
<!-- 0_17 -->
<g id="node19" class="node">
<title>0_17</title>
<polygon fill="none" stroke="black" points="5723,-2330.74 0,-2330.74 0,-2294.74 5723,-2294.74 5723,-2330.74"/>
<text text-anchor="middle" x="2861.5" y="-2309.04" font-family="Times,serif" font-size="14.00">lookupswitch($u&#45;1) { &#160;&#160;&#160;&#160;case &#45;1: goto passwordColonOffset = &lt;okhttp3.HttpUrl$Builder: okhttp3.HttpUrl$Builder$Companion Companion&gt;; &#160;&#160;&#160;&#160;case 35: goto passwordColonOffset = &lt;okhttp3.HttpUrl$Builder: okhttp3.HttpUrl$Builder$Companion Companion&gt;; &#160;&#160;&#160;&#160;case 47: goto passwordColonOffset = &lt;okhttp3.HttpUrl$Builder: okhttp3.HttpUrl$Builder$Companion Companion&gt;; &#160;&#160;&#160;&#160;case 63: goto passwordColonOffset = &lt;okhttp3.HttpUrl$Builder: okhttp3.HttpUrl$Builder$Companion Companion&gt;; &#160;&#160;&#160;&#160;case 64: goto if hasPassword1 != 0 goto $u0 = new java.lang.StringBuilder; &#160;&#160;&#160;&#160;case 92: goto passwordColonOffset = &lt;okhttp3.HttpUrl$Builder: okhttp3.HttpUrl$Builder$Companion Companion&gt;; &#160;&#160;&#160;&#160;default: goto pos = int okhttp3.internal.Util.delimiterOffset($u33, &quot;@/\?#&quot;, $u&#45;1#9, limit1); }</text>
</g>
<!-- 0_16&#45;&gt;0_17 -->
<g id="edge17" class="edge">
<title>0_16&#45;&gt;0_17</title>
<path fill="none" stroke="black" d="M2861.5,-2367.55C2861.5,-2359.53 2861.5,-2349.79 2861.5,-2340.81"/>
<polygon fill="black" stroke="black" points="2865,-2340.77 2861.5,-2330.77 2858,-2340.77 2865,-2340.77"/>
</g>
<!-- 0_18 -->
<g id="node20" class="node">
<title>0_18</title>
<polygon fill="none" stroke="black" points="3147,-2257.74 2576,-2257.74 2576,-2221.74 3147,-2221.74 3147,-2257.74"/>
<text text-anchor="middle" x="2861.5" y="-2236.04" font-family="Times,serif" font-size="14.00">pos = int okhttp3.internal.Util.delimiterOffset($u33, &quot;@/\?#&quot;, $u&#45;1#9, limit1)</text>
</g>
<!-- 0_17&#45;&gt;0_18 -->
<g id="edge18" class="edge">
<title>0_17&#45;&gt;0_18</title>
<path fill="none" stroke="black" d="M2861.5,-2294.55C2861.5,-2286.53 2861.5,-2276.79 2861.5,-2267.81"/>
<polygon fill="black" stroke="black" points="2865,-2267.77 2861.5,-2257.77 2858,-2267.77 2865,-2267.77"/>
</g>
<!-- 0_19 -->
<g id="node21" class="node">
<title>0_19</title>
<polygon fill="none" stroke="black" points="3220,-2184.74 2503,-2184.74 2503,-2148.74 3220,-2148.74 3220,-2184.74"/>
<text text-anchor="middle" x="2861.5" y="-2163.04" font-family="Times,serif" font-size="14.00">if pos#202 &gt;= pos goto pos#101 = &lt;okhttp3.HttpUrl: okhttp3.HttpUrl$Companion Companion&gt;</text>
</g>
<!-- 0_18&#45;&gt;0_19 -->
<g id="edge19" class="edge">
<title>0_18&#45;&gt;0_19</title>
<path fill="none" stroke="black" d="M2861.5,-2221.55C2861.5,-2213.53 2861.5,-2203.79 2861.5,-2194.81"/>
<polygon fill="black" stroke="black" points="2865,-2194.77 2861.5,-2184.77 2858,-2194.77 2865,-2194.77"/>
</g>
<!-- 0_20 -->
<g id="node22" class="node">
<title>0_20</title>
<polygon fill="none" stroke="black" points="3275,-2111.74 2448,-2111.74 2448,-2075.74 3275,-2075.74 3275,-2111.74"/>
<text text-anchor="middle" x="2861.5" y="-2090.04" font-family="Times,serif" font-size="14.00">passwordColonOffset1 = java.lang.String okhttp3.internal.HostnamesKt.toCanonicalHost(passwordColonOffset1)</text>
</g>
<!-- 0_19&#45;&gt;0_20 -->
<g id="edge20" class="edge">
<title>0_19&#45;&gt;0_20</title>
<path fill="none" stroke="black" d="M2861.5,-2148.55C2861.5,-2140.53 2861.5,-2130.79 2861.5,-2121.81"/>
<polygon fill="black" stroke="black" points="2865,-2121.77 2861.5,-2111.77 2858,-2121.77 2865,-2121.77"/>
</g>
<!-- 0_21 -->
<g id="node23" class="node">
<title>0_21</title>
<polygon fill="none" stroke="black" points="2908.5,-2038.74 2814.5,-2038.74 2814.5,-2002.74 2908.5,-2002.74 2908.5,-2038.74"/>
<text text-anchor="middle" x="2861.5" y="-2017.04" font-family="Times,serif" font-size="14.00">return null</text>
</g>
<!-- 0_20&#45;&gt;0_21 -->
<g id="edge21" class="edge">
<title>0_20&#45;&gt;0_21</title>
<path fill="none" stroke="black" d="M2861.5,-2075.55C2861.5,-2067.53 2861.5,-2057.79 2861.5,-2048.81"/>
<polygon fill="black" stroke="black" points="2865,-2048.77 2861.5,-2038.77 2858,-2048.77 2865,-2048.77"/>
</g>
<!-- 0_22 -->
<g id="node24" class="node">
<title>0_22</title>
<polygon fill="none" stroke="black" points="3156.5,-1965.74 2566.5,-1965.74 2566.5,-1929.74 3156.5,-1929.74 3156.5,-1965.74"/>
<text text-anchor="middle" x="2861.5" y="-1944.04" font-family="Times,serif" font-size="14.00">this.&lt;okhttp3.HttpUrl$Builder: java.lang.String host&gt; = passwordColonOffset1</text>
</g>
<!-- 0_21&#45;&gt;0_22 -->
<g id="edge22" class="edge">
<title>0_21&#45;&gt;0_22</title>
<path fill="none" stroke="black" d="M2861.5,-2002.55C2861.5,-1994.53 2861.5,-1984.79 2861.5,-1975.81"/>
<polygon fill="black" stroke="black" points="2865,-1975.77 2861.5,-1965.77 2858,-1975.77 2865,-1975.77"/>
</g>
<!-- 0_23 -->
<g id="node25" class="node">
<title>0_23</title>
<polygon fill="none" stroke="black" points="2906.5,-1892.74 2816.5,-1892.74 2816.5,-1856.74 2906.5,-1856.74 2906.5,-1892.74"/>
<text text-anchor="middle" x="2861.5" y="-1871.04" font-family="Times,serif" font-size="14.00">throw $u1</text>
</g>
<!-- 0_22&#45;&gt;0_23 -->
<g id="edge23" class="edge">
<title>0_22&#45;&gt;0_23</title>
<path fill="none" stroke="black" d="M2861.5,-1929.55C2861.5,-1921.53 2861.5,-1911.79 2861.5,-1902.81"/>
<polygon fill="black" stroke="black" points="2865,-1902.77 2861.5,-1892.77 2858,-1902.77 2865,-1902.77"/>
</g>
<!-- 0_24 -->
<g id="node26" class="node">
<title>0_24</title>
<polygon fill="none" stroke="black" points="2995.5,-1819.74 2727.5,-1819.74 2727.5,-1783.74 2995.5,-1783.74 2995.5,-1819.74"/>
<text text-anchor="middle" x="2861.5" y="-1798.04" font-family="Times,serif" font-size="14.00">$u&#45;1 = okhttp3.HttpUrl $u0.build()</text>
</g>
<!-- 0_23&#45;&gt;0_24 -->
<g id="edge24" class="edge">
<title>0_23&#45;&gt;0_24</title>
<path fill="none" stroke="black" d="M2861.5,-1856.55C2861.5,-1848.53 2861.5,-1838.79 2861.5,-1829.81"/>
<polygon fill="black" stroke="black" points="2865,-1829.77 2861.5,-1819.77 2858,-1829.77 2865,-1829.77"/>
</g>
<!-- 0_25 -->
<g id="node27" class="node">
<title>0_25</title>
<polygon fill="none" stroke="black" points="3104.5,-1746.74 2618.5,-1746.74 2618.5,-1710.74 3104.5,-1710.74 3104.5,-1746.74"/>
<text text-anchor="middle" x="2861.5" y="-1725.04" font-family="Times,serif" font-size="14.00">$u5#18 = this.&lt;okhttp3.HttpUrl$Builder: java.lang.String host&gt;</text>
</g>
<!-- 0_24&#45;&gt;0_25 -->
<g id="edge25" class="edge">
<title>0_24&#45;&gt;0_25</title>
<path fill="none" stroke="black" d="M2861.5,-1783.55C2861.5,-1775.53 2861.5,-1765.79 2861.5,-1756.81"/>
<polygon fill="black" stroke="black" points="2865,-1756.77 2861.5,-1746.77 2858,-1756.77 2865,-1756.77"/>
</g>
<!-- 0_26 -->
<g id="node28" class="node">
<title>0_26</title>
<polygon fill="none" stroke="black" points="3158,-1673.74 2565,-1673.74 2565,-1637.74 3158,-1637.74 3158,-1673.74"/>
<text text-anchor="middle" x="2861.5" y="-1652.04" font-family="Times,serif" font-size="14.00">if $u5#18 == null goto $this$map$iv#97 = new java.lang.IllegalStateException</text>
</g>
<!-- 0_25&#45;&gt;0_26 -->
<g id="edge26" class="edge">
<title>0_25&#45;&gt;0_26</title>
<path fill="none" stroke="black" d="M2861.5,-1710.55C2861.5,-1702.53 2861.5,-1692.79 2861.5,-1683.81"/>
<polygon fill="black" stroke="black" points="2865,-1683.77 2861.5,-1673.77 2858,-1683.77 2865,-1683.77"/>
</g>
<!-- 0_27 -->
<g id="node29" class="node">
<title>0_27</title>
<polygon fill="none" stroke="black" points="3245,-1600.74 2478,-1600.74 2478,-1564.74 3245,-1564.74 3245,-1600.74"/>
<text text-anchor="middle" x="2861.5" y="-1579.04" font-family="Times,serif" font-size="14.00">void okhttp3.HttpUrl.&lt;init&gt;($u2, $u4, $u5, $u5#18, $u&#45;1, $this$map$iv, $this$map$iv#50, it, $u&#45;1#89)</text>
</g>
<!-- 0_26&#45;&gt;0_27 -->
<g id="edge27" class="edge">
<title>0_26&#45;&gt;0_27</title>
<path fill="none" stroke="black" d="M2861.5,-1637.55C2861.5,-1629.53 2861.5,-1619.79 2861.5,-1610.81"/>
<polygon fill="black" stroke="black" points="2865,-1610.77 2861.5,-1600.77 2858,-1610.77 2865,-1610.77"/>
</g>
<!-- 0_28 -->
<g id="node30" class="node">
<title>0_28</title>
<polygon fill="none" stroke="black" points="3111.5,-1527.74 2611.5,-1527.74 2611.5,-1491.74 3111.5,-1491.74 3111.5,-1527.74"/>
<text text-anchor="middle" x="2861.5" y="-1506.04" font-family="Times,serif" font-size="14.00">$u&#45;1 = boolean kotlin.jvm.internal.Intrinsics.areEqual($u2, &quot;https&quot;)</text>
</g>
<!-- 0_27&#45;&gt;0_28 -->
<g id="edge28" class="edge">
<title>0_27&#45;&gt;0_28</title>
<path fill="none" stroke="black" d="M2861.5,-1564.55C2861.5,-1556.53 2861.5,-1546.79 2861.5,-1537.81"/>
<polygon fill="black" stroke="black" points="2865,-1537.77 2861.5,-1527.77 2858,-1537.77 2865,-1537.77"/>
</g>
<!-- 0_29 -->
<g id="node31" class="node">
<title>0_29</title>
<polygon fill="none" stroke="black" points="2899.5,-1454.74 2823.5,-1454.74 2823.5,-1418.74 2899.5,-1418.74 2899.5,-1454.74"/>
<text text-anchor="middle" x="2861.5" y="-1433.04" font-family="Times,serif" font-size="14.00">return 0</text>
</g>
<!-- 0_28&#45;&gt;0_29 -->
<g id="edge29" class="edge">
<title>0_28&#45;&gt;0_29</title>
<path fill="none" stroke="black" d="M2861.5,-1491.55C2861.5,-1483.53 2861.5,-1473.79 2861.5,-1464.81"/>
<polygon fill="black" stroke="black" points="2865,-1464.77 2861.5,-1454.77 2858,-1464.77 2865,-1464.77"/>
</g>
<!-- 0_30 -->
<g id="node32" class="node">
<title>0_30</title>
<polygon fill="none" stroke="black" points="3042.5,-1381.74 2680.5,-1381.74 2680.5,-1345.74 3042.5,-1345.74 3042.5,-1381.74"/>
<text text-anchor="middle" x="2861.5" y="-1360.04" font-family="Times,serif" font-size="14.00">this.&lt;okhttp3.HttpUrl: boolean isHttps&gt; = $u&#45;1</text>
</g>
<!-- 0_29&#45;&gt;0_30 -->
<g id="edge30" class="edge">
<title>0_29&#45;&gt;0_30</title>
<path fill="none" stroke="black" d="M2861.5,-1418.55C2861.5,-1410.53 2861.5,-1400.79 2861.5,-1391.81"/>
<polygon fill="black" stroke="black" points="2865,-1391.77 2861.5,-1381.77 2858,-1391.77 2865,-1391.77"/>
</g>
<!-- 0_31 -->
<g id="node33" class="node">
<title>0_31</title>
<polygon fill="none" stroke="black" points="2892.5,-1308.74 2830.5,-1308.74 2830.5,-1272.74 2892.5,-1272.74 2892.5,-1308.74"/>
<text text-anchor="middle" x="2861.5" y="-1287.04" font-family="Times,serif" font-size="14.00">return</text>
</g>
<!-- 0_30&#45;&gt;0_31 -->
<g id="edge31" class="edge">
<title>0_30&#45;&gt;0_31</title>
<path fill="none" stroke="black" d="M2861.5,-1345.55C2861.5,-1337.53 2861.5,-1327.79 2861.5,-1318.81"/>
<polygon fill="black" stroke="black" points="2865,-1318.77 2861.5,-1308.77 2858,-1318.77 2865,-1318.77"/>
</g>
<!-- 0_32 -->
<g id="node34" class="node">
<title>0_32</title>
<polygon fill="none" stroke="black" points="2941.5,-1235.74 2781.5,-1235.74 2781.5,-1199.74 2941.5,-1199.74 2941.5,-1235.74"/>
<text text-anchor="middle" x="2861.5" y="-1214.04" font-family="Times,serif" font-size="14.00">return $i$f$mapTo1</text>
</g>
<!-- 0_31&#45;&gt;0_32 -->
<g id="edge32" class="edge">
<title>0_31&#45;&gt;0_32</title>
<path fill="none" stroke="black" d="M2861.5,-1272.55C2861.5,-1264.53 2861.5,-1254.79 2861.5,-1245.81"/>
<polygon fill="black" stroke="black" points="2865,-1245.77 2861.5,-1235.77 2858,-1245.77 2865,-1245.77"/>
</g>
<!-- 0_33 -->
<g id="node35" class="node">
<title>0_33</title>
<polygon fill="none" stroke="black" points="2910.5,-1162.74 2812.5,-1162.74 2812.5,-1126.74 2910.5,-1126.74 2910.5,-1162.74"/>
<text text-anchor="middle" x="2861.5" y="-1141.04" font-family="Times,serif" font-size="14.00">return $u&#45;1</text>
</g>
<!-- 0_32&#45;&gt;0_33 -->
<g id="edge33" class="edge">
<title>0_32&#45;&gt;0_33</title>
<path fill="none" stroke="black" d="M2861.5,-1199.55C2861.5,-1191.53 2861.5,-1181.79 2861.5,-1172.81"/>
<polygon fill="black" stroke="black" points="2865,-1172.77 2861.5,-1162.77 2858,-1172.77 2865,-1172.77"/>
</g>
<!-- 0_34 -->
<g id="node36" class="node">
<title>0_34</title>
<polygon fill="none" stroke="black" points="3048,-1089.74 2675,-1089.74 2675,-1053.74 3048,-1053.74 3048,-1089.74"/>
<text text-anchor="middle" x="2861.5" y="-1068.04" font-family="Times,serif" font-size="14.00">this = okhttp3.Request$Builder this.url($u&#45;1#21)</text>
</g>
<!-- 0_33&#45;&gt;0_34 -->
<g id="edge34" class="edge">
<title>0_33&#45;&gt;0_34</title>
<path fill="none" stroke="black" d="M2861.5,-1126.55C2861.5,-1118.53 2861.5,-1108.79 2861.5,-1099.81"/>
<polygon fill="black" stroke="black" points="2865,-1099.77 2861.5,-1089.77 2858,-1099.77 2865,-1099.77"/>
</g>
<!-- 0_35 -->
<g id="node37" class="node">
<title>0_35</title>
<polygon fill="none" stroke="black" points="3047.5,-1016.74 2675.5,-1016.74 2675.5,-980.74 3047.5,-980.74 3047.5,-1016.74"/>
<text text-anchor="middle" x="2861.5" y="-995.04" font-family="Times,serif" font-size="14.00">void okhttp3.Request$Builder.setUrl$okhttp($u3)</text>
</g>
<!-- 0_34&#45;&gt;0_35 -->
<g id="edge35" class="edge">
<title>0_34&#45;&gt;0_35</title>
<path fill="none" stroke="black" d="M2861.5,-1053.55C2861.5,-1045.53 2861.5,-1035.79 2861.5,-1026.81"/>
<polygon fill="black" stroke="black" points="2865,-1026.77 2861.5,-1016.77 2858,-1026.77 2865,-1026.77"/>
</g>
<!-- 0_36 -->
<g id="node38" class="node">
<title>0_36</title>
<polygon fill="none" stroke="black" points="3086.5,-943.74 2636.5,-943.74 2636.5,-907.74 3086.5,-907.74 3086.5,-943.74"/>
<text text-anchor="middle" x="2861.5" y="-922.04" font-family="Times,serif" font-size="14.00">this.&lt;okhttp3.Request$Builder: okhttp3.HttpUrl url&gt; = $u1</text>
</g>
<!-- 0_35&#45;&gt;0_36 -->
<g id="edge36" class="edge">
<title>0_35&#45;&gt;0_36</title>
<path fill="none" stroke="black" d="M2861.5,-980.55C2861.5,-972.53 2861.5,-962.79 2861.5,-953.81"/>
<polygon fill="black" stroke="black" points="2865,-953.77 2861.5,-943.77 2858,-953.77 2865,-953.77"/>
</g>
<!-- 0_37 -->
<g id="node39" class="node">
<title>0_37</title>
<polygon fill="none" stroke="black" points="3011,-870.74 2712,-870.74 2712,-834.74 3011,-834.74 3011,-870.74"/>
<text text-anchor="middle" x="2861.5" y="-849.04" font-family="Times,serif" font-size="14.00">this := @this: okhttp3.Request$Builder</text>
</g>
<!-- 0_36&#45;&gt;0_37 -->
<g id="edge37" class="edge">
<title>0_36&#45;&gt;0_37</title>
<path fill="none" stroke="black" d="M2861.5,-907.55C2861.5,-899.53 2861.5,-889.79 2861.5,-880.81"/>
<polygon fill="black" stroke="black" points="2865,-880.77 2861.5,-870.77 2858,-880.77 2865,-880.77"/>
</g>
<!-- 0_38 -->
<g id="node40" class="node">
<title>0_38</title>
<polygon fill="none" stroke="black" points="2991,-797.74 2732,-797.74 2732,-761.74 2991,-761.74 2991,-797.74"/>
<text text-anchor="middle" x="2861.5" y="-776.04" font-family="Times,serif" font-size="14.00">$this$url_u24lambda_u2d0 = this</text>
</g>
<!-- 0_37&#45;&gt;0_38 -->
<g id="edge38" class="edge">
<title>0_37&#45;&gt;0_38</title>
<path fill="none" stroke="black" d="M2861.5,-834.55C2861.5,-826.53 2861.5,-816.79 2861.5,-807.81"/>
<polygon fill="black" stroke="black" points="2865,-807.77 2861.5,-797.77 2858,-807.77 2865,-807.77"/>
</g>
<!-- 0_39 -->
<g id="node41" class="node">
<title>0_39</title>
<polygon fill="none" stroke="black" points="2908.5,-724.74 2814.5,-724.74 2814.5,-688.74 2908.5,-688.74 2908.5,-724.74"/>
<text text-anchor="middle" x="2861.5" y="-703.04" font-family="Times,serif" font-size="14.00">return this</text>
</g>
<!-- 0_38&#45;&gt;0_39 -->
<g id="edge39" class="edge">
<title>0_38&#45;&gt;0_39</title>
<path fill="none" stroke="black" d="M2861.5,-761.55C2861.5,-753.53 2861.5,-743.79 2861.5,-734.81"/>
<polygon fill="black" stroke="black" points="2865,-734.77 2861.5,-724.77 2858,-734.77 2865,-734.77"/>
</g>
<!-- 0_40 -->
<g id="node42" class="node">
<title>0_40</title>
<polygon fill="none" stroke="black" points="2908.5,-651.74 2814.5,-651.74 2814.5,-615.74 2908.5,-615.74 2908.5,-651.74"/>
<text text-anchor="middle" x="2861.5" y="-630.04" font-family="Times,serif" font-size="14.00">return this</text>
</g>
<!-- 0_39&#45;&gt;0_40 -->
<g id="edge40" class="edge">
<title>0_39&#45;&gt;0_40</title>
<path fill="none" stroke="black" d="M2861.5,-688.55C2861.5,-680.53 2861.5,-670.79 2861.5,-661.81"/>
<polygon fill="black" stroke="black" points="2865,-661.77 2861.5,-651.77 2858,-661.77 2865,-661.77"/>
</g>
<!-- 0_41 -->
<g id="node43" class="node">
<title>0_41</title>
<polygon fill="none" stroke="black" points="2987,-578.74 2736,-578.74 2736,-542.74 2987,-542.74 2987,-578.74"/>
<text text-anchor="middle" x="2861.5" y="-557.04" font-family="Times,serif" font-size="14.00">$u&#45;1 = okhttp3.Request e.build()</text>
</g>
<!-- 0_40&#45;&gt;0_41 -->
<g id="edge41" class="edge">
<title>0_40&#45;&gt;0_41</title>
<path fill="none" stroke="black" d="M2861.5,-615.55C2861.5,-607.53 2861.5,-597.79 2861.5,-588.81"/>
<polygon fill="black" stroke="black" points="2865,-588.77 2861.5,-578.77 2858,-588.77 2865,-588.77"/>
</g>
<!-- 0_42 -->
<g id="node44" class="node">
<title>0_42</title>
<polygon fill="none" stroke="black" points="3086.5,-505.74 2636.5,-505.74 2636.5,-469.74 3086.5,-469.74 3086.5,-505.74"/>
<text text-anchor="middle" x="2861.5" y="-484.04" font-family="Times,serif" font-size="14.00">$u1 = this.&lt;okhttp3.Request$Builder: okhttp3.HttpUrl url&gt;</text>
</g>
<!-- 0_41&#45;&gt;0_42 -->
<g id="edge42" class="edge">
<title>0_41&#45;&gt;0_42</title>
<path fill="none" stroke="black" d="M2861.5,-542.55C2861.5,-534.53 2861.5,-524.79 2861.5,-515.81"/>
<polygon fill="black" stroke="black" points="2865,-515.77 2861.5,-505.77 2858,-515.77 2865,-515.77"/>
</g>
<!-- 0_43 -->
<g id="node45" class="node">
<title>0_43</title>
<polygon fill="none" stroke="black" points="3227,-432.74 2496,-432.74 2496,-396.74 3227,-396.74 3227,-432.74"/>
<text text-anchor="middle" x="2861.5" y="-411.04" font-family="Times,serif" font-size="14.00">void okhttp3.Request.&lt;init&gt;($u1, $u2, $u&#45;1, $u4, $i$a$&#45;checkNotNull&#45;Request$Builder$build$1#4)</text>
</g>
<!-- 0_42&#45;&gt;0_43 -->
<g id="edge43" class="edge">
<title>0_42&#45;&gt;0_43</title>
<path fill="none" stroke="black" d="M2861.5,-469.55C2861.5,-461.53 2861.5,-451.79 2861.5,-442.81"/>
<polygon fill="black" stroke="black" points="2865,-442.77 2861.5,-432.77 2858,-442.77 2865,-442.77"/>
</g>
<!-- 0_44 -->
<g id="node46" class="node">
<title>0_44</title>
<polygon fill="none" stroke="black" points="3056,-359.74 2667,-359.74 2667,-323.74 3056,-323.74 3056,-359.74"/>
<text text-anchor="middle" x="2861.5" y="-338.04" font-family="Times,serif" font-size="14.00">this.&lt;okhttp3.Request: okhttp3.HttpUrl url&gt; = $u2</text>
</g>
<!-- 0_43&#45;&gt;0_44 -->
<g id="edge44" class="edge">
<title>0_43&#45;&gt;0_44</title>
<path fill="none" stroke="black" d="M2861.5,-396.55C2861.5,-388.53 2861.5,-378.79 2861.5,-369.81"/>
<polygon fill="black" stroke="black" points="2865,-369.77 2861.5,-359.77 2858,-369.77 2865,-369.77"/>
</g>
<!-- 0_45 -->
<g id="node47" class="node">
<title>0_45</title>
<polygon fill="none" stroke="black" points="2892.5,-286.74 2830.5,-286.74 2830.5,-250.74 2892.5,-250.74 2892.5,-286.74"/>
<text text-anchor="middle" x="2861.5" y="-265.04" font-family="Times,serif" font-size="14.00">return</text>
</g>
<!-- 0_44&#45;&gt;0_45 -->
<g id="edge45" class="edge">
<title>0_44&#45;&gt;0_45</title>
<path fill="none" stroke="black" d="M2861.5,-323.55C2861.5,-315.53 2861.5,-305.79 2861.5,-296.81"/>
<polygon fill="black" stroke="black" points="2865,-296.77 2861.5,-286.77 2858,-296.77 2865,-296.77"/>
</g>
<!-- 0_46 -->
<g id="node48" class="node">
<title>0_46</title>
<polygon fill="none" stroke="black" points="2908.5,-213.74 2814.5,-213.74 2814.5,-177.74 2908.5,-177.74 2908.5,-213.74"/>
<text text-anchor="middle" x="2861.5" y="-192.04" font-family="Times,serif" font-size="14.00">return $u6</text>
</g>
<!-- 0_45&#45;&gt;0_46 -->
<g id="edge46" class="edge">
<title>0_45&#45;&gt;0_46</title>
<path fill="none" stroke="black" d="M2861.5,-250.55C2861.5,-242.53 2861.5,-232.79 2861.5,-223.81"/>
<polygon fill="black" stroke="black" points="2865,-223.77 2861.5,-213.77 2858,-223.77 2865,-223.77"/>
</g>
<!-- 0_47 -->
<g id="node49" class="node">
<title>0_47</title>
<polygon fill="none" stroke="black" points="3028,-140.74 2695,-140.74 2695,-104.74 3028,-104.74 3028,-140.74"/>
<text text-anchor="middle" x="2861.5" y="-119.04" font-family="Times,serif" font-size="14.00">$u&#45;1#11 = okhttp3.Call e#10.newCall($u&#45;1)</text>
</g>
<!-- 0_46&#45;&gt;0_47 -->
<g id="edge47" class="edge">
<title>0_46&#45;&gt;0_47</title>
<path fill="none" stroke="black" d="M2861.5,-177.55C2861.5,-169.53 2861.5,-159.79 2861.5,-150.81"/>
<polygon fill="black" stroke="black" points="2865,-150.77 2861.5,-140.77 2858,-150.77 2865,-150.77"/>
</g>
<!-- 0_47&#45;&gt;55 -->
<g id="edge48" class="edge">
<title>0_47&#45;&gt;55</title>
<path fill="none" stroke="black" d="M2861.5,-104.52C2861.5,-93.22 2861.5,-78.01 2861.5,-64.12"/>
<polygon fill="black" stroke="black" points="2865,-63.84 2861.5,-53.84 2858,-63.84 2865,-63.84"/>
<text text-anchor="middle" x="2911" y="-75.54" font-family="Times,serif" font-size="14.00">sinks through</text>
</g>
</g>
</svg>
